<svg width="32" height="32" viewBox="0 0 32 32" fill="none" xmlns="http://www.w3.org/2000/svg">
<path d="M21.5122 4.25185C21.5115 4.22623 21.51 4.20073 21.5072 4.17543C21.5061 4.16569 21.5044 4.15607 21.5031 4.14632C21.5007 4.12973 21.498 4.11321 21.4949 4.09682C21.4924 4.08404 21.4898 4.07132 21.4869 4.05867C21.4834 4.04409 21.4793 4.02963 21.4751 4.01524C21.4688 3.99303 21.4618 3.97115 21.4539 3.94953C21.451 3.94146 21.448 3.93333 21.4448 3.92539C21.424 3.87208 21.3985 3.8209 21.3686 3.7721C21.3675 3.77023 21.3664 3.76836 21.3652 3.76649C21.242 3.5675 21.0486 3.41086 20.8065 3.34038C20.3021 3.19348 19.7757 3.47043 19.6064 3.96179C19.6012 3.9769 19.5952 3.99155 19.5907 4.00717C19.4393 4.52713 19.7375 5.07309 20.2575 5.22451C20.7775 5.37593 21.3218 5.07619 21.4733 4.55623C21.4818 4.52751 21.4884 4.49866 21.494 4.46981C21.4955 4.46265 21.4968 4.45535 21.4982 4.44813C21.5031 4.41992 21.5071 4.39172 21.5095 4.3637C21.5099 4.3597 21.5099 4.35583 21.5102 4.35189C21.5119 4.32756 21.5127 4.30342 21.5126 4.27928C21.5126 4.27012 21.5126 4.26102 21.5122 4.25185Z" fill="#8F8F8F"/>
<path d="M19.0345 14.3722C18.9987 14.3667 18.9623 14.3624 18.9252 14.3624C18.8714 14.3624 18.8191 14.3689 18.7686 14.38L18.6937 14.3051L16.9587 12.5679L16.9316 12.5408C17.0978 12.2172 17.1132 11.8365 16.9777 11.5028C16.9689 11.4804 16.9583 11.4585 16.9479 11.4366L16.9757 11.4089L18.7121 9.6748L18.7607 9.6262C18.9806 9.66189 19.214 9.59651 19.3841 9.42715C19.6426 9.16865 19.6625 8.76242 19.4455 8.48037C19.4271 8.45591 19.4065 8.43183 19.3841 8.4095C19.1037 8.12822 18.6477 8.12822 18.3669 8.40905C18.3193 8.45675 18.2805 8.50909 18.2488 8.56492C18.1681 8.70917 18.141 8.87531 18.1669 9.03441L18.1193 9.08204L16.3773 10.8217L16.3537 10.8453C16.0064 10.6822 15.5995 10.688 15.2571 10.8642L15.2473 10.8544L13.5128 9.1176L13.4755 9.08029C13.5142 8.88641 13.4732 8.68 13.3515 8.51374C13.33 8.4845 13.3072 8.45578 13.281 8.42957C13.0002 8.14875 12.5442 8.14791 12.2633 8.42873C12.223 8.46907 12.1894 8.5129 12.1607 8.55885C11.9886 8.83671 12.022 9.20596 12.2629 9.44683C12.4399 9.62381 12.6869 9.68939 12.9156 9.64266L12.9517 9.67874L14.6922 11.4215L14.703 11.4324C14.5409 11.7686 14.539 12.1622 14.6965 12.5L14.6743 12.5222L12.9207 14.2734L12.866 14.3281C12.8536 14.3269 12.8412 14.3247 12.8287 14.3241C12.6329 14.3147 12.4337 14.3833 12.2838 14.5332C12.0791 14.7372 12.0236 15.0339 12.1172 15.2889C12.1515 15.3843 12.2065 15.4736 12.2829 15.55C12.5642 15.8312 13.0194 15.8312 13.3006 15.5509C13.4811 15.3704 13.5453 15.1181 13.4937 14.8861L13.5353 14.8444L15.2615 13.1206L15.2871 13.0951C15.6264 13.2578 16.0239 13.2578 16.3631 13.0947L16.3914 13.1231L18.1254 14.8594L18.2172 14.9512C18.2095 14.9935 18.2048 15.0369 18.2048 15.0816C18.2048 15.1387 18.2121 15.1932 18.2242 15.2461C18.2989 15.5643 18.5837 15.8017 18.9244 15.8017C19.2117 15.8017 19.4607 15.6329 19.5754 15.3882C19.6198 15.2958 19.6441 15.1921 19.6441 15.0828C19.6441 14.9734 19.6197 14.8696 19.5754 14.7767C19.4754 14.564 19.2744 14.4091 19.0345 14.3722Z" fill="#8F8F8F"/>
<g filter="url(#filter0_d_411_10090)">
<path d="M16 0C9.38313 0 4 5.3832 4 12C4 18.6168 9.38313 24 16 24C22.6168 24 28 18.6168 28 12C28 5.3832 22.6168 0 16 0ZM27.2255 12C27.2255 12.9534 27.1057 13.8792 26.8809 14.7635L22.5122 13.593C22.6373 13.0822 22.704 12.5487 22.704 11.9999C22.704 11.4512 22.6373 10.9177 22.5122 10.407L26.8809 9.2364C27.1056 10.1209 27.2255 11.0466 27.2255 12ZM4.77451 12C4.77451 11.0466 4.89437 10.1208 5.11911 9.23647L9.48769 10.407C9.36274 10.9179 9.29593 11.4513 9.29593 12.0001C9.29593 12.5489 9.36274 13.0823 9.48769 13.5931L5.11911 14.7637C4.89437 13.8792 4.77451 12.9534 4.77451 12ZM21.336 10.506C21.3368 10.5086 21.3375 10.5113 21.3383 10.5139C21.3562 10.5782 21.3731 10.643 21.3887 10.7082C21.4881 11.123 21.5422 11.5552 21.5422 12.0001C21.5422 12.445 21.4881 12.8773 21.3886 13.2921C21.3731 13.3571 21.3562 13.4217 21.3384 13.4858C21.3375 13.4889 21.3367 13.492 21.3358 13.4951C21.2631 13.754 21.1723 14.0053 21.0644 14.2474C21.0644 14.2475 21.0643 14.2476 21.0642 14.2476C20.9828 14.4303 20.8919 14.6078 20.7919 14.7795C20.7917 14.7799 20.7914 14.7802 20.7912 14.7807C20.5241 15.239 20.1932 15.6558 19.8107 16.0188C19.1853 16.6121 18.4225 17.0614 17.575 17.3131C17.4623 17.3467 17.348 17.3762 17.2325 17.4026C17.2162 17.4063 17.1999 17.4103 17.1835 17.414C17.1344 17.4247 17.0851 17.4345 17.0355 17.444C17.0036 17.4501 16.9715 17.4557 16.9394 17.4613C16.8964 17.4686 16.8534 17.4763 16.8101 17.4827C16.7382 17.4933 16.666 17.5026 16.5932 17.5103C16.564 17.5135 16.5344 17.5158 16.505 17.5185C16.4476 17.5237 16.3902 17.5282 16.3323 17.5316C16.3054 17.5333 16.2784 17.5349 16.2515 17.5361C16.168 17.5399 16.0843 17.5425 16 17.5425C15.9156 17.5425 15.8319 17.5399 15.7485 17.5361C15.7215 17.5349 15.6946 17.5333 15.6678 17.5316C15.61 17.5282 15.5523 17.5237 15.495 17.5185C15.4656 17.5158 15.436 17.5135 15.4067 17.5103C15.334 17.5026 15.2618 17.4933 15.1899 17.4827C15.1465 17.4763 15.1036 17.4687 15.0605 17.4612C15.0284 17.4557 14.9964 17.4501 14.9645 17.444C14.9149 17.4346 14.8653 17.4247 14.8162 17.4139C14.8002 17.4104 14.7845 17.4065 14.7686 17.4028C14.6526 17.3763 14.5377 17.3467 14.4246 17.313C13.5771 17.0613 12.8143 16.6118 12.1889 16.0183C11.9978 15.8369 11.8196 15.6422 11.6557 15.4356C11.6556 15.4353 11.6553 15.435 11.6551 15.4346C11.4916 15.2282 11.3424 15.0099 11.2091 14.7812C11.2086 14.7802 11.2081 14.7793 11.2076 14.7784C11.108 14.6075 11.0174 14.4306 10.9363 14.2487C10.936 14.2481 10.9357 14.2474 10.9355 14.2469C10.9084 14.1863 10.8825 14.1249 10.8575 14.0632C10.8574 14.0628 10.8573 14.0623 10.8571 14.0619C10.783 13.8777 10.7186 13.6886 10.6643 13.4953C10.6634 13.492 10.6625 13.4889 10.6616 13.4858C10.6438 13.4217 10.6269 13.3572 10.6114 13.2921C10.5119 12.8773 10.4578 12.4451 10.4578 12.0001C10.4578 11.5552 10.5119 11.1229 10.6114 10.7081C10.6269 10.6431 10.6437 10.5786 10.6616 10.5145C10.6625 10.5114 10.6634 10.5082 10.6643 10.505C10.7185 10.3117 10.7829 10.1226 10.857 9.9385C10.8572 9.93798 10.8574 9.93747 10.8575 9.93702C10.8824 9.87525 10.9083 9.81413 10.9353 9.75352C10.9356 9.75281 10.936 9.7521 10.9363 9.75133C11.0173 9.56957 11.1079 9.39299 11.2073 9.22214C11.208 9.22104 11.2085 9.21994 11.2092 9.21891C11.3423 8.99043 11.4914 8.77234 11.6547 8.566C11.6551 8.56548 11.6556 8.56496 11.6559 8.56445C11.8197 8.35791 11.9978 8.16325 12.1887 7.98201C12.8146 7.38809 13.578 6.93848 14.4263 6.68677C14.5383 6.65353 14.6519 6.62423 14.7667 6.59796C14.7834 6.59415 14.8 6.59002 14.8167 6.5864C14.8655 6.57569 14.9148 6.56588 14.9641 6.55646C14.9963 6.55032 15.0286 6.54464 15.061 6.53909C15.1038 6.53167 15.1465 6.52412 15.1897 6.51773C15.2616 6.50714 15.334 6.49785 15.4068 6.49004C15.436 6.48688 15.4655 6.48468 15.4948 6.48197C15.5523 6.47675 15.6098 6.47223 15.6677 6.46874C15.6946 6.46713 15.7214 6.46551 15.7484 6.46429C15.8319 6.46048 15.9156 6.4579 15.9999 6.4579C16.0843 6.4579 16.168 6.46054 16.2515 6.46429C16.2784 6.46551 16.3053 6.46713 16.3321 6.46874C16.39 6.47216 16.4477 6.47675 16.505 6.48197C16.5344 6.48468 16.5639 6.48694 16.5931 6.49004C16.6659 6.49785 16.7382 6.50714 16.8101 6.51773C16.8533 6.52412 16.896 6.53167 16.9389 6.53909C16.9712 6.54464 17.0036 6.55032 17.0357 6.55646C17.0852 6.56588 17.1343 6.57569 17.1832 6.5864C17.1999 6.59008 17.2165 6.59415 17.2332 6.59796C17.3479 6.62423 17.4615 6.65359 17.5734 6.68677C18.4216 6.93842 19.1847 7.38783 19.8105 7.98156C20.0019 8.16312 20.1802 8.3581 20.3442 8.56503C20.3443 8.56503 20.3444 8.56509 20.3444 8.56509C20.5082 8.77182 20.6575 8.99049 20.791 9.21949C20.7913 9.22007 20.7917 9.22065 20.792 9.22117C20.8918 9.39266 20.9828 9.57003 21.0641 9.75255C21.0642 9.75268 21.0642 9.75281 21.0642 9.75294C21.0915 9.81387 21.1175 9.87538 21.1425 9.93747C21.217 10.1222 21.2816 10.3119 21.336 10.506ZM20.6331 7.15903C19.8653 6.42388 18.9235 5.8694 17.8765 5.56359L19.0471 1.19495C20.8709 1.70993 22.5072 2.67575 23.8287 3.96332L20.6331 7.15903ZM14.1235 5.56359C13.0765 5.86933 12.1347 6.42395 11.3669 7.15909L8.17121 3.96345C9.49272 2.67582 11.1291 1.71 12.9529 1.19495L14.1235 5.56359ZM11.3668 16.8408C12.1346 17.576 13.0764 18.1306 14.1234 18.4364L12.9529 22.8051C11.129 22.29 9.49266 21.3242 8.17115 20.0365L11.3668 16.8408ZM17.8765 18.4364C18.9235 18.1307 19.8653 17.5761 20.6331 16.841L23.8287 20.0366C22.5072 21.3242 20.8709 22.2901 19.047 22.8051L17.8765 18.4364Z" fill="#8F8F8F"/>
</g>
<defs>
<filter id="filter0_d_411_10090" x="0" y="0" width="32" height="32" filterUnits="userSpaceOnUse" color-interpolation-filters="sRGB">
<feFlood flood-opacity="0" result="BackgroundImageFix"/>
<feColorMatrix in="SourceAlpha" type="matrix" values="0 0 0 0 0 0 0 0 0 0 0 0 0 0 0 0 0 0 127 0" result="hardAlpha"/>
<feOffset dy="4"/>
<feGaussianBlur stdDeviation="2"/>
<feComposite in2="hardAlpha" operator="out"/>
<feColorMatrix type="matrix" values="0 0 0 0 0 0 0 0 0 0 0 0 0 0 0 0 0 0 0.25 0"/>
<feBlend mode="normal" in2="BackgroundImageFix" result="effect1_dropShadow_411_10090"/>
<feBlend mode="normal" in="SourceGraphic" in2="effect1_dropShadow_411_10090" result="shape"/>
</filter>
</defs>
</svg>
